<svg width="32" height="32" viewBox="0 0 32 32" fill="none" xmlns="http://www.w3.org/2000/svg">
<path fill-rule="evenodd" clip-rule="evenodd" d="M18.6372 9.84619L22.1535 13.3624L13.3619 22.154L9.84562 18.6378L18.6372 9.84619Z" stroke="#121C30" stroke-width="2" stroke-linecap="round" stroke-linejoin="round"/>
<path fill-rule="evenodd" clip-rule="evenodd" d="M4.57168 15.1208C5.05697 14.6355 5.84378 14.6355 6.32908 15.1208L16.8795 25.6712C17.3648 26.1565 17.3648 26.9433 16.8795 27.4286L15.9997 28.3084C15.5144 28.7937 14.7276 28.7937 14.2423 28.3084L3.69188 17.758C3.20659 17.2727 3.20659 16.4859 3.69188 16.0006L4.57168 15.1208Z" stroke="#121C30" stroke-width="2" stroke-linecap="round" stroke-linejoin="round"/>
<path fill-rule="evenodd" clip-rule="evenodd" d="M4.57168 20.3962C5.05697 19.9109 5.84378 19.9109 6.32908 20.3962L11.6051 25.6722C12.0904 26.1575 12.0904 26.9443 11.6051 27.4296L10.7253 28.3094C10.24 28.7947 9.45324 28.7947 8.96794 28.3094L3.69188 23.0333C3.20659 22.5481 3.20659 21.7612 3.69188 21.276L4.57168 20.3962Z" stroke="#121C30" stroke-width="2" stroke-linecap="round" stroke-linejoin="round"/>
<path fill-rule="evenodd" clip-rule="evenodd" d="M27.428 16.8803C26.9427 17.3656 26.1559 17.3656 25.6706 16.8803L15.1202 6.32989C14.6349 5.8446 14.6349 5.05779 15.1202 4.57249L16 3.6927C16.4853 3.20741 17.2721 3.20741 17.7574 3.6927L28.3078 14.2431C28.7931 14.7284 28.7931 15.5152 28.3078 16.0005L27.428 16.8803Z" stroke="#121C30" stroke-width="2" stroke-linecap="round" stroke-linejoin="round"/>
<path fill-rule="evenodd" clip-rule="evenodd" d="M27.4287 11.6042C26.9434 12.0895 26.1566 12.0895 25.6713 11.6042L20.3952 6.32815C19.9099 5.84286 19.9099 5.05605 20.3952 4.57076L21.275 3.69096C21.7603 3.20567 22.5471 3.20567 23.0324 3.69096L28.3085 8.96702C28.7938 9.45231 28.7938 10.2391 28.3085 10.7244L27.4287 11.6042Z" stroke="#121C30" stroke-width="2" stroke-linecap="round" stroke-linejoin="round"/>
</svg>
