<svg width="244" height="248" viewBox="0 0 244 248" fill="none" xmlns="http://www.w3.org/2000/svg">
	<path d="M117.694 245.735C181.591 245.735 233.389 239.014 233.389 230.724C233.389 222.434 181.591 215.713 117.694 215.713C53.7981 215.713 2 222.434 2 230.724C2 239.014 53.7981 245.735 117.694 245.735Z" fill="#EAEAEA"/>
	<path d="M12.8553 78.2285L101.733 1L215.563 41.7359L12.8553 78.2285Z" fill="#B5E2CE"/>
	<path d="M215.563 41.7374L12.8555 78.2305L39.2816 225.019L241.989 188.526L215.563 41.7374Z" fill="#B5E2CE"/>
	<path d="M173.964 2.19028L38.05 26.6572L67.8877 192.406L203.802 167.939L173.964 2.19028Z" fill="#F8F8F8"/>
	<path d="M80.2127 44.9663L63.1162 48.0469L63.6091 50.7821L80.7056 47.7016L80.2127 44.9663Z" fill="#CDCDCD"/>
	<path d="M157.799 31.0032L132.433 35.5742L132.925 38.3095L158.292 33.7385L157.799 31.0032Z" fill="#CDCDCD"/>
	<path d="M125.486 36.8211L87.4919 43.6631L87.9847 46.3996L125.979 39.5577L125.486 36.8211Z" fill="#CDCDCD"/>
	<path d="M108.151 59.381L66.5089 66.8848L67.0019 69.6204L108.644 62.1166L108.151 59.381Z" fill="#CDCDCD"/>
	<path d="M161.189 49.8289L113.979 58.3359L114.473 61.072L161.682 52.5649L161.189 49.8289Z" fill="#CDCDCD"/>
	<path d="M108.195 49.7241L64.8242 57.5371L65.3171 60.2732L108.688 52.4602L108.195 49.7241Z" fill="#CDCDCD"/>
	<path d="M134.142 45.0529L117.609 48.0322L118.101 50.7675L134.635 47.7882L134.142 45.0529Z" fill="#CDCDCD"/>
	<path d="M159.506 40.4904L142.972 43.4688L143.465 46.2053L159.999 43.2269L159.506 40.4904Z" fill="#CDCDCD"/>
	<path d="M110.111 69.5212L68.4706 77.0225L68.9634 79.7582L110.604 72.257L110.111 69.5212Z" fill="#CDCDCD"/>
	<path d="M130.838 65.7947L113.945 68.8379L114.437 71.5736L131.331 68.5304L130.838 65.7947Z" fill="#CDCDCD"/>
	<path d="M163.152 59.9712L138.171 64.4727L138.664 67.2079L163.645 62.7065L163.152 59.9712Z" fill="#CDCDCD"/>
	<path d="M99.7955 91.2527L71.9355 96.2715L72.4284 99.0072L100.288 93.9884L99.7955 91.2527Z" fill="#CDCDCD"/>
	<path d="M94.7954 82.5073L70.2531 86.9297L70.746 89.6653L95.2883 85.2429L94.7954 82.5073Z" fill="#CDCDCD"/>
	<path d="M164.933 69.8813L151.046 72.3828L151.539 75.1189L165.426 72.6174L164.933 69.8813Z" fill="#CDCDCD"/>
	<path d="M148.4 72.8555L99.4512 81.6729L99.9441 84.4093L148.893 75.592L148.4 72.8555Z" fill="#CDCDCD"/>
	<path d="M91.8409 109.55L74.7429 112.629L75.2357 115.365L92.3336 112.286L91.8409 109.55Z" fill="#CDCDCD"/>
	<path d="M169.425 95.5832L144.057 100.154L144.55 102.89L169.918 98.3184L169.425 95.5832Z" fill="#CDCDCD"/>
	<path d="M137.111 101.398L99.1179 108.24L99.6108 110.977L137.604 104.135L137.111 101.398Z" fill="#CDCDCD"/>
	<path d="M119.775 123.964L78.1333 131.466L78.6262 134.202L120.268 126.7L119.775 123.964Z" fill="#CDCDCD"/>
	<path d="M172.814 114.415L125.604 122.922L126.097 125.657L173.307 117.15L172.814 114.415Z" fill="#CDCDCD"/>
	<path d="M119.822 114.303L76.4525 122.118L76.9456 124.854L120.315 117.039L119.822 114.303Z" fill="#CDCDCD"/>
	<path d="M145.763 109.637L129.23 112.616L129.723 115.352L146.256 112.373L145.763 109.637Z" fill="#CDCDCD"/>
	<path d="M171.134 105.07L154.598 108.05L155.091 110.785L171.627 107.805L171.134 105.07Z" fill="#CDCDCD"/>
	<path d="M121.739 134.099L80.0964 141.599L80.5892 144.335L122.231 136.835L121.739 134.099Z" fill="#CDCDCD"/>
	<path d="M142.464 130.377L125.571 133.42L126.064 136.156L142.957 133.112L142.464 130.377Z" fill="#CDCDCD"/>
	<path d="M174.779 124.549L149.798 129.051L150.291 131.786L175.271 127.285L174.779 124.549Z" fill="#CDCDCD"/>
	<path d="M111.42 155.839L83.561 160.857L84.0539 163.594L111.913 158.575L111.42 155.839Z" fill="#CDCDCD"/>
	<path d="M106.422 147.089L81.8785 151.509L82.3713 154.245L106.915 149.825L106.422 147.089Z" fill="#CDCDCD"/>
	<path d="M176.56 134.461L162.674 136.963L163.167 139.699L177.053 137.197L176.56 134.461Z" fill="#CDCDCD"/>
	<path d="M160.027 137.427L111.082 146.262L111.576 148.997L160.521 140.162L160.027 137.427Z" fill="#CDCDCD"/>
	<path d="M12.8546 78.2285L126.372 127.551L39.2809 225.017L12.8546 78.2285Z" fill="#41CE8E"/>
	<path d="M215.562 41.7354L126.372 127.551L241.989 188.523L215.562 41.7354Z" fill="#41CE8E"/>
	<path d="M39.282 225.017L124.067 114.737L241.989 188.523L39.282 225.017Z" fill="#18B16C"/>
	<path d="M117.26 123.592L39.282 225.017C39.282 225.017 104.062 117.857 104.629 118.104C105.199 118.35 117.26 123.592 117.26 123.592Z" fill="#08844C"/>
	<path d="M133.545 120.727L242 188.589C242 188.589 143.914 110.75 143.466 111.179C143.022 111.608 133.545 120.727 133.545 120.727Z" fill="#08844C"/>
	</svg>
	