<svg width="24" height="24" viewBox="0 0 24 24" fill="none" xmlns="http://www.w3.org/2000/svg">
<path d="M13.527 11.125V9.777C13.527 8.934 12.843 8.25 12 8.25V8.25C11.157 8.25 10.473 8.934 10.473 9.777V11.125" stroke="#171717" stroke-width="1.5" stroke-linecap="round" stroke-linejoin="round"/>
<path fill-rule="evenodd" clip-rule="evenodd" d="M13.75 11.126H10.25C9.698 11.126 9.25 11.574 9.25 12.126V14.25C9.25 14.802 9.698 15.25 10.25 15.25H13.75C14.302 15.25 14.75 14.802 14.75 14.25V12.126C14.75 11.574 14.302 11.126 13.75 11.126Z" stroke="#171717" stroke-width="1.5" stroke-linecap="round" stroke-linejoin="round"/>
<path fill-rule="evenodd" clip-rule="evenodd" d="M20 11.242C20 15.61 16.843 19.704 12.52 20.928C12.182 21.024 11.818 21.024 11.48 20.928C7.157 19.705 4 15.61 4 11.242V7.214C4 6.402 4.491 5.67 5.243 5.363L10.107 3.373C11.321 2.876 12.681 2.876 13.894 3.373L18.758 5.363C19.509 5.67 20 6.402 20 7.214V11.242Z" stroke="#171717" stroke-width="1.5" stroke-linecap="round" stroke-linejoin="round"/>
</svg>
