<svg width="32" height="32" viewBox="0 0 32 32" fill="none" xmlns="http://www.w3.org/2000/svg">
<path d="M4 22.1573C5.528 21.4786 7.272 21.4786 8.8 22.1573C10.328 22.836 12.072 22.836 13.6 22.1573C15.128 21.4786 16.872 21.4786 18.4 22.1573C19.928 22.836 21.672 22.836 23.2 22.1573C24.728 21.4786 26.472 21.4786 28 22.1573" stroke="#121C30" stroke-width="2" stroke-linecap="round" stroke-linejoin="round"/>
<path d="M10.6667 10.6667H21.3333" stroke="#121C30" stroke-width="2" stroke-linecap="round" stroke-linejoin="round"/>
<path d="M10.6667 16H21.3333" stroke="#121C30" stroke-width="2" stroke-linecap="round" stroke-linejoin="round"/>
<path d="M21.3333 18.6667V6C21.3333 4.896 22.2293 4 23.3333 4V4C24.4373 4 25.3333 4.896 25.3333 6" stroke="#121C30" stroke-width="2" stroke-linecap="round" stroke-linejoin="round"/>
<path d="M10.6667 18.6667V6C10.6667 4.896 11.5627 4 12.6667 4V4C13.7707 4 14.6667 4.896 14.6667 6" stroke="#121C30" stroke-width="2" stroke-linecap="round" stroke-linejoin="round"/>
<path d="M4 27.4906C5.528 26.8119 7.272 26.8119 8.8 27.4906C10.328 28.1692 12.072 28.1692 13.6 27.4906C15.128 26.8119 16.872 26.8119 18.4 27.4906C19.928 28.1692 21.672 28.1692 23.2 27.4906C24.728 26.8119 26.472 26.8119 28 27.4906" stroke="#121C30" stroke-width="2" stroke-linecap="round" stroke-linejoin="round"/>
</svg>
