<svg width="80" height="28" viewBox="0 0 80 28" fill="none" xmlns="http://www.w3.org/2000/svg">
<path fill-rule="evenodd" clip-rule="evenodd" d="M46.0537 0.333618V26.4237H51.2429V17.9199V16.2608V0.333618H46.0537Z" fill="#F6F7F9"/>
<path fill-rule="evenodd" clip-rule="evenodd" d="M51.2432 17.9186H51.3152L57.0089 26.4224H63.4954L56.6493 17.1971L51.2432 17.9186Z" fill="#F6F7F9"/>
<path fill-rule="evenodd" clip-rule="evenodd" d="M11.964 17.2684C11.3153 16.908 10.5946 16.6197 9.87387 16.4756C9.15315 16.3314 8.43243 16.1152 7.78378 15.9711C7.13514 15.8269 6.55856 15.6828 6.12613 15.4666C5.69369 15.2503 5.47748 14.9621 5.47748 14.5296C5.47748 14.0251 5.69369 13.6648 6.12613 13.4485C6.55856 13.2323 6.99099 13.1603 7.42342 13.1603C8.64865 13.1603 9.65766 13.6648 10.4504 14.6017L13.6216 11.4305C12.8288 10.5657 11.8919 10.0612 10.7387 9.70079C9.58559 9.41251 8.5045 9.19629 7.42342 9.19629C6.55856 9.19629 5.69369 9.34043 4.82883 9.55665C3.96396 9.77287 3.24324 10.1332 2.59459 10.5657C1.94595 10.9981 1.44144 11.6467 1.00901 12.2954C0.576577 13.0161 0.432432 13.881 0.432432 14.8179C0.432432 15.899 0.648649 16.6918 1.08108 17.3404C1.51351 17.9891 2.01802 18.4936 2.73874 18.7819C3.45946 19.0702 4.10811 19.3585 4.82883 19.5747C5.54955 19.7188 6.27027 19.935 6.91892 20.0792C7.56757 20.2233 8.14414 20.4395 8.57658 20.6557C9.00901 20.872 9.22523 21.2323 9.22523 21.6648C9.22523 22.0972 9.00901 22.4576 8.5045 22.6017C8 22.7458 7.4955 22.89 6.84685 22.89C6.05405 22.89 5.40541 22.7458 4.75676 22.4576C4.18018 22.1693 3.6036 21.6648 3.17117 21.0882L0 24.5476C0.864865 25.4125 1.87387 25.9891 3.02703 26.3494C4.25225 26.7098 5.40541 26.8539 6.55856 26.8539C7.42342 26.8539 8.36036 26.7819 9.2973 26.5657C10.2342 26.4215 11.027 26.0612 11.8198 25.7008C12.5405 25.2684 13.1892 24.6918 13.6216 24.0431C14.1261 23.3224 14.3423 22.4576 14.3423 21.3765C14.3423 20.2954 14.1261 19.5026 13.6937 18.8539C13.1892 18.1332 12.6847 17.6287 11.964 17.2684Z" fill="#F6F7F9"/>
<path fill-rule="evenodd" clip-rule="evenodd" d="M22.486 4.65796H17.2968V9.63093H13.9814V13.8111H17.2968V21.8111C17.2968 22.748 17.4409 23.5408 17.7292 24.1895C18.0175 24.8381 18.4499 25.3426 19.0265 25.7751C19.6031 26.2075 20.2517 26.4958 20.9724 26.6399C21.6932 26.8562 22.486 26.9282 23.4229 26.9282C23.9995 26.9282 24.6481 26.9282 25.2247 26.8562C25.8733 26.7841 26.4499 26.6399 27.0265 26.4237V22.0994C26.8103 22.3156 26.4499 22.4598 26.0175 22.5318C25.585 22.6039 25.2247 22.6039 24.9364 22.6039C24.3598 22.6039 23.9274 22.5318 23.6391 22.3877C23.2787 22.2435 23.0625 22.0273 22.9184 21.739C22.7742 21.4508 22.6301 21.1625 22.6301 20.73C22.558 20.3697 22.558 19.9372 22.558 19.5048V13.8832H27.0986V9.703H22.558V4.65796H22.486Z" fill="#F6F7F9"/>
<path fill-rule="evenodd" clip-rule="evenodd" d="M42.5222 11.5038C41.9457 10.783 41.1536 10.2065 40.1439 9.84611C39.1348 9.48575 37.9103 9.26953 36.3961 9.26953C35.0275 9.26953 33.6574 9.48575 32.3601 9.91818C31.0635 10.3506 29.9096 11.0713 28.9727 11.9362L31.7114 14.747C32.288 14.0984 32.8653 13.6659 33.586 13.3056C34.3067 12.9452 35.0988 12.8011 35.8916 12.8011C36.7565 12.8011 37.55 13.0894 38.1979 13.5939C38.8466 14.1704 39.2069 14.8912 39.2069 15.756H36.9006C36.0357 15.756 35.243 15.8281 34.3781 15.9722C33.5132 16.1164 32.7204 16.2605 31.9276 16.4767C31.1348 16.693 30.4141 17.0533 29.8375 17.4857C29.2617 17.9182 28.7565 18.4948 28.3961 19.1434C28.0357 19.7921 27.8916 20.6569 27.8916 21.5939C27.8916 22.4587 28.0357 23.1794 28.3961 23.8281C28.6844 24.4767 29.1889 24.9812 29.6934 25.4857C30.27 25.9182 30.9186 26.2785 31.6393 26.4948C32.3601 26.711 33.1529 26.8551 33.8736 26.8551C34.9547 26.8551 35.9637 26.6389 36.9006 26.2785C37.8375 25.9182 38.6311 25.2695 39.2069 24.3326H39.279V26.4227H44.0365V17.9182C44.0365 16.5488 43.8916 15.2515 43.6761 14.1704C43.5312 13.1614 43.0995 12.2245 42.5222 11.5038ZM39.3518 20.2245C39.3518 20.729 39.2069 21.2335 38.9914 21.5939C38.7745 21.9542 38.4862 22.3146 38.1258 22.5308C37.7655 22.8191 37.333 22.9632 36.9006 23.1074C36.3961 23.2515 35.9637 23.3236 35.4592 23.3236C34.8826 23.3236 34.3067 23.1794 33.8015 22.8912C33.297 22.6029 33.0087 22.0984 33.0087 21.5218C33.0087 20.9452 33.2257 20.5128 33.586 20.1524C33.9464 19.8641 34.4502 19.5758 34.9547 19.4317C35.5312 19.2875 36.0357 19.1434 36.6123 19.1434C37.1896 19.1434 37.6934 19.0713 38.0538 19.0713H39.3518V20.2245Z" fill="#F6F7F9"/>
<mask id="mask0_215_7399" style="mask-type:alpha" maskUnits="userSpaceOnUse" x="62" y="9" width="18" height="18">
<path d="M62.3418 9.19629H79.7115V26.9263H62.3418V9.19629Z" fill="#F6F7F9"/>
</mask>
<g mask="url(#mask0_215_7399)">
<path fill-rule="evenodd" clip-rule="evenodd" d="M79.6391 18.0612C79.6391 16.6925 79.4229 15.5386 79.0625 14.4576C78.7022 13.3765 78.1977 12.4395 77.4769 11.6475C76.829 10.8539 75.9634 10.2774 74.9544 9.84566C73.9461 9.41251 72.865 9.19629 71.7112 9.19629C70.4139 9.19629 69.1886 9.41251 68.0355 9.84566C66.8831 10.2774 65.8733 10.8539 65.0813 11.6475C64.2164 12.4395 63.567 13.3765 63.0625 14.4576C62.5587 15.5386 62.3418 16.7639 62.3418 18.0612C62.3418 19.3592 62.5587 20.5837 63.0625 21.6648C63.567 22.7458 64.2164 23.6835 65.0813 24.4756C65.9454 25.2684 66.8831 25.8457 68.0355 26.2774C69.1886 26.7098 70.4139 26.9267 71.7112 26.9267C73.0805 26.9267 74.3778 26.6377 75.6751 26.0619C76.9731 25.4853 77.9814 24.6918 78.8463 23.6107L75.2427 20.944C74.811 21.5213 74.3065 22.0251 73.7299 22.3855C73.1526 22.7458 72.4319 22.9628 71.5677 22.9628C70.558 22.9628 69.6931 22.6738 69.0452 22.0979C68.3245 21.5213 67.8913 20.7278 67.6751 19.7195H79.7119V18.0612H79.6391ZM67.6038 16.1159C67.6038 15.6828 67.7472 15.3224 67.8913 14.8907C68.0355 14.5303 68.3245 14.17 68.6121 13.881C68.9011 13.5927 69.2614 13.3765 69.7659 13.1603C70.1977 12.944 70.7029 12.872 71.2787 12.872C72.2157 12.872 73.0092 13.1603 73.5858 13.8096C74.1616 14.4576 74.4506 15.1783 74.4506 16.0431H67.6038V16.1159Z" fill="#F6F7F9"/>
</g>
<path fill-rule="evenodd" clip-rule="evenodd" d="M63.351 9.62988H57.0087L46.0537 25.4857V26.4227H51.2429L63.351 9.62988Z" fill="#41CE8E"/>
</svg>
