<svg width="111" height="37" viewBox="0 0 111 37" fill="none" xmlns="http://www.w3.org/2000/svg">
<path fill-rule="evenodd" clip-rule="evenodd" d="M63.8999 0V36.2H71.0999V24.401V22.099V0H63.8999Z" fill="#121C30"/>
<path fill-rule="evenodd" clip-rule="evenodd" d="M71.0996 24.3994H71.1996L79.0996 36.1984H88.0996L78.6006 23.3984L71.0996 24.3994Z" fill="#121C30"/>
<path fill-rule="evenodd" clip-rule="evenodd" d="M16.6 23.4969C15.7 22.9969 14.7 22.5969 13.7 22.3969C12.7 22.1969 11.7 21.8969 10.8 21.6969C9.9 21.4969 9.1 21.2969 8.5 20.9969C7.9 20.6969 7.6 20.2969 7.6 19.6969C7.6 18.9969 7.9 18.4969 8.5 18.1969C9.1 17.8969 9.7 17.7969 10.3 17.7969C12 17.7969 13.4 18.4969 14.5 19.7969L18.9 15.3969C17.8 14.1969 16.5 13.4969 14.9 12.9969C13.3 12.5969 11.8 12.2969 10.3 12.2969C9.1 12.2969 7.9 12.4969 6.7 12.7969C5.5 13.0969 4.5 13.5969 3.6 14.1969C2.7 14.7969 2 15.6969 1.4 16.5969C0.8 17.5969 0.6 18.7969 0.6 20.0969C0.6 21.5969 0.9 22.6969 1.5 23.5969C2.1 24.4969 2.8 25.1969 3.8 25.5969C4.8 25.9969 5.7 26.3969 6.7 26.6969C7.7 26.8969 8.7 27.1969 9.6 27.3969C10.5 27.5969 11.3 27.8969 11.9 28.1969C12.5 28.4969 12.8 28.9969 12.8 29.5969C12.8 30.1969 12.5 30.6969 11.8 30.8969C11.1 31.0969 10.4 31.2969 9.5 31.2969C8.4 31.2969 7.5 31.0969 6.6 30.6969C5.8 30.2969 5 29.5969 4.4 28.7969L0 33.5969C1.2 34.7969 2.6 35.5969 4.2 36.0969C5.9 36.5969 7.5 36.7969 9.1 36.7969C10.3 36.7969 11.6 36.6969 12.9 36.3969C14.2 36.1969 15.3 35.6969 16.4 35.1969C17.4 34.5969 18.3 33.7969 18.9 32.8969C19.6 31.8969 19.9 30.6969 19.9 29.1969C19.9 27.6969 19.6 26.5969 19 25.6969C18.3 24.6969 17.6 23.9969 16.6 23.4969Z" fill="#121C30"/>
<path fill-rule="evenodd" clip-rule="evenodd" d="M31.1994 6H23.9994V12.9H19.3994V18.7H23.9994V29.8C23.9994 31.1 24.1994 32.2 24.5994 33.1C24.9994 34 25.5994 34.7 26.3994 35.3C27.1994 35.9 28.0994 36.3 29.0994 36.5C30.0994 36.8 31.1994 36.9 32.4994 36.9C33.2994 36.9 34.1994 36.9 34.9994 36.8C35.8994 36.7 36.6994 36.5 37.4994 36.2V30.2C37.1994 30.5 36.6994 30.7 36.0994 30.8C35.4994 30.9 34.9994 30.9 34.5994 30.9C33.7994 30.9 33.1994 30.8 32.7994 30.6C32.2994 30.4 31.9994 30.1 31.7994 29.7C31.5994 29.3 31.3994 28.9 31.3994 28.3C31.2994 27.8 31.2994 27.2 31.2994 26.6V18.8H37.5994V13H31.2994V6H31.1994Z" fill="#121C30"/>
<path fill-rule="evenodd" clip-rule="evenodd" d="M58.9992 15.4984C58.1992 14.4984 57.1002 13.6984 55.6992 13.1984C54.2992 12.6984 52.6002 12.3984 50.4992 12.3984C48.6002 12.3984 46.6992 12.6984 44.8992 13.2984C43.1002 13.8984 41.4992 14.8984 40.1992 16.0984L43.9992 19.9984C44.7992 19.0984 45.6002 18.4984 46.6002 17.9984C47.6002 17.4984 48.6992 17.2984 49.7992 17.2984C50.9992 17.2984 52.1002 17.6984 52.9992 18.3984C53.8992 19.1984 54.3992 20.1984 54.3992 21.3984H51.1992C49.9992 21.3984 48.8992 21.4984 47.6992 21.6984C46.4992 21.8984 45.3992 22.0984 44.2992 22.3984C43.1992 22.6984 42.1992 23.1984 41.3992 23.7984C40.6002 24.3984 39.8992 25.1984 39.3992 26.0984C38.8992 26.9984 38.6992 28.1984 38.6992 29.4984C38.6992 30.6984 38.8992 31.6984 39.3992 32.5984C39.7992 33.4984 40.4992 34.1984 41.1992 34.8984C41.9992 35.4984 42.8992 35.9984 43.8992 36.2984C44.8992 36.5984 45.9992 36.7984 46.9992 36.7984C48.4992 36.7984 49.8992 36.4984 51.1992 35.9984C52.4992 35.4984 53.6002 34.5984 54.3992 33.2984H54.4992V36.1984H61.1002V24.3984C61.1002 22.4984 60.8992 20.6984 60.6002 19.1984C60.3992 17.7984 59.8002 16.4984 58.9992 15.4984ZM54.6002 27.5984C54.6002 28.2984 54.3992 28.9984 54.1002 29.4984C53.7992 29.9984 53.3992 30.4984 52.8992 30.7984C52.3992 31.1984 51.7992 31.3984 51.1992 31.5984C50.4992 31.7984 49.8992 31.8984 49.1992 31.8984C48.3992 31.8984 47.6002 31.6984 46.8992 31.2984C46.1992 30.8984 45.7992 30.1984 45.7992 29.3984C45.7992 28.5984 46.1002 27.9984 46.6002 27.4984C47.1002 27.0984 47.7992 26.6984 48.4992 26.4984C49.2992 26.2984 49.9992 26.0984 50.7992 26.0984C51.6002 26.0984 52.2992 25.9984 52.7992 25.9984H54.6002V27.5984Z" fill="#121C30"/>
<mask id="mask0" mask-type="alpha" maskUnits="userSpaceOnUse" x="86" y="12" width="25" height="25">
<path d="M86.4995 12.2969H110.6V36.8973H86.4995V12.2969Z" fill="white"/>
</mask>
<g mask="url(#mask0)">
<path fill-rule="evenodd" clip-rule="evenodd" d="M110.5 24.5969C110.5 22.6979 110.2 21.0969 109.7 19.5969C109.2 18.0969 108.5 16.7969 107.5 15.6979C106.601 14.5969 105.4 13.7969 104 13.1979C102.601 12.5969 101.101 12.2969 99.4995 12.2969C97.6995 12.2969 95.9995 12.5969 94.3995 13.1979C92.8005 13.7969 91.3995 14.5969 90.3005 15.6979C89.1005 16.7969 88.1995 18.0969 87.4995 19.5969C86.8005 21.0969 86.4995 22.7969 86.4995 24.5969C86.4995 26.3979 86.8005 28.0969 87.4995 29.5969C88.1995 31.0969 89.1005 32.3979 90.3005 33.4969C91.4995 34.5969 92.8005 35.3979 94.3995 35.9969C95.9995 36.5969 97.6995 36.8979 99.4995 36.8979C101.4 36.8979 103.2 36.4969 105 35.6979C106.801 34.8979 108.2 33.7969 109.4 32.2969L104.4 28.5969C103.801 29.3979 103.101 30.0969 102.301 30.5969C101.5 31.0969 100.5 31.3979 99.3005 31.3979C97.8995 31.3979 96.6995 30.9969 95.8005 30.1979C94.8005 29.3979 94.1995 28.2969 93.8995 26.8979H110.601V24.5969H110.5ZM93.8005 21.8979C93.8005 21.2969 93.9995 20.7969 94.1995 20.1979C94.3995 19.6979 94.8005 19.1979 95.1995 18.7969C95.6005 18.3969 96.1005 18.0969 96.8005 17.7969C97.3995 17.4969 98.1005 17.3969 98.8995 17.3969C100.2 17.3969 101.301 17.7969 102.101 18.6979C102.9 19.5969 103.301 20.5969 103.301 21.7969H93.8005V21.8979Z" fill="#121C30"/>
</g>
<path fill-rule="evenodd" clip-rule="evenodd" d="M87.8999 12.8984H79.0999L63.8999 34.8984V36.1984H71.0999L87.8999 12.8984Z" fill="#41CE8E"/>
</svg>
