<svg width="64" height="64" viewBox="0 0 64 64" fill="none" xmlns="http://www.w3.org/2000/svg">
<rect width="64" height="64" rx="8" fill="#FFF"/>
<path d="M33.9634 36.0016H49.0071C50.6646 36.0016 52.0083 34.6579 52.0083 33.0004V20.9954C52.0083 19.3378 50.6646 17.9941 49.0071 17.9941H28.9987C27.3412 17.9941 25.9975 19.3378 25.9975 20.9954V34.0008" stroke="#171717" stroke-width="2.5" stroke-linecap="round" stroke-linejoin="round"/>
<path d="M36.881 24.8759C38.0545 23.7134 39.9468 23.7179 41.1148 24.8859C42.2829 26.0539 42.2873 27.9462 41.1248 29.1197" stroke="#171717" stroke-width="2.5" stroke-linecap="round" stroke-linejoin="round"/>
<path d="M25.9975 23.9967H21.412C20.4801 23.9967 19.5611 24.2136 18.7276 24.6304L17.5567 25.2158C16.5357 25.7263 15.6815 26.5173 15.0942 27.4962L11.9917 32.6669" stroke="#171717" stroke-width="2.5" stroke-linecap="round" stroke-linejoin="round"/>
<path d="M13.9925 50.0075L25.521 45.8418C27.1301 45.2604 28.5105 44.1786 29.4598 42.7552L35.448 33.7754C36.3189 32.4694 36.1469 30.7301 35.0368 29.6201V29.6201C33.7511 28.3343 31.6665 28.3341 30.3805 29.6196L25.9975 34.0009H21.9958" stroke="#171717" stroke-width="2.5" stroke-linecap="round" stroke-linejoin="round"/>
</svg>
